<mxfile host="app.diagrams.net" modified="2023-10-17T15:16:25.298Z" agent="Mozilla/5.0 (Windows NT 10.0; Win64; x64) AppleWebKit/537.36 (KHTML, like Gecko) Chrome/118.0.0.0 Safari/537.36 Edg/118.0.2088.46" version="21.7.5" etag="tBIaqncsDtj4CX5xf0Lt" type="github">
  <diagram name="第 1 页" id="yhQL0ZXj7WdiP-UB2Rmd">
    <mxGraphModel>
      <root>
        <mxCell id="0" />
        <mxCell id="1" parent="0" />
      </root>
    </mxGraphModel>
  </diagram>
</mxfile>
